<svg width="971" height="795" viewBox="0 0 971 795" fill="none" xmlns="http://www.w3.org/2000/svg">
<rect x="331" y="13" width="620" height="545" rx="30" fill="#FDB515"/>
<g filter="url(#filter0_d)">
<rect x="80" y="73.3198" width="830.437" height="578.521" rx="30" fill="white"/>
</g>
<path fill-rule="evenodd" clip-rule="evenodd" d="M138.617 128.156H207.199C210.825 128.156 213.765 131.133 213.765 134.805C213.765 138.476 210.825 141.453 207.199 141.453H138.617C134.991 141.453 132.051 138.476 132.051 134.805C132.051 131.133 134.991 128.156 138.617 128.156V128.156Z" fill="white"/>
<path fill-rule="evenodd" clip-rule="evenodd" d="M141.587 115.771H584.457C592.593 115.771 594.734 119.808 594.734 124.794C594.734 129.778 592.593 133.819 584.457 133.819H141.587C133.451 133.819 129.824 129.778 129.824 124.794C129.824 119.808 133.451 115.771 141.587 115.771Z" fill="#C2DAF0"/>
<path fill-rule="evenodd" clip-rule="evenodd" d="M149.766 609.884H174.572C178.198 609.884 181.138 612.861 181.138 616.533C181.138 620.206 178.198 623.182 174.572 623.182H149.766C146.139 623.182 143.199 620.206 143.199 616.533C143.199 612.861 146.139 609.884 149.766 609.884V609.884Z" fill="#E6ECF0"/>
<path fill-rule="evenodd" clip-rule="evenodd" d="M162.898 601.761C171.763 601.761 178.949 594.816 178.949 586.247C178.949 577.679 171.763 570.733 162.898 570.733C154.033 570.733 146.847 577.679 146.847 586.247C146.847 594.816 154.033 601.761 162.898 601.761Z" fill="#0496FF"/>
<path fill-rule="evenodd" clip-rule="evenodd" d="M212.508 609.884H237.314C240.94 609.884 243.88 612.861 243.88 616.533C243.88 620.206 240.94 623.182 237.314 623.182H212.508C208.882 623.182 205.941 620.206 205.941 616.533C205.941 612.861 208.882 609.884 212.508 609.884V609.884Z" fill="#E6ECF0"/>
<path fill-rule="evenodd" clip-rule="evenodd" d="M225.642 601.761C234.506 601.761 241.693 594.816 241.693 586.247C241.693 577.679 234.506 570.733 225.642 570.733C216.777 570.733 209.591 577.679 209.591 586.247C209.591 594.816 216.777 601.761 225.642 601.761Z" fill="#25D366"/>
<path fill-rule="evenodd" clip-rule="evenodd" d="M273.793 609.884H298.599C302.225 609.884 305.165 612.861 305.165 616.533C305.165 620.206 302.225 623.182 298.599 623.182H273.793C270.167 623.182 267.227 620.206 267.227 616.533C267.227 612.861 270.167 609.884 273.793 609.884V609.884Z" fill="#E6ECF0"/>
<path fill-rule="evenodd" clip-rule="evenodd" d="M286.927 601.761C295.792 601.761 302.978 594.816 302.978 586.247C302.978 577.679 295.792 570.733 286.927 570.733C278.062 570.733 270.876 577.679 270.876 586.247C270.876 594.816 278.062 601.761 286.927 601.761Z" fill="#F34213"/>
<path fill-rule="evenodd" clip-rule="evenodd" d="M139.492 397.043C143.995 397.043 147.644 393.347 147.644 388.788C147.644 384.229 143.995 380.533 139.492 380.533C134.99 380.533 131.34 384.229 131.34 388.788C131.34 393.347 134.99 397.043 139.492 397.043Z" fill="#E6ECF0"/>
<rect x="263.289" y="416.304" width="50.7254" height="15.898" rx="2" fill="#0077FF"/>
<rect x="155.793" y="380.837" width="158.215" height="26.9044" rx="4.5" fill="#E6ECF0"/>
<path fill-rule="evenodd" clip-rule="evenodd" d="M139.492 356.687C143.995 356.687 147.644 352.991 147.644 348.432C147.644 343.874 143.995 340.178 139.492 340.178C134.99 340.178 131.34 343.874 131.34 348.432C131.34 352.991 134.99 356.687 139.492 356.687Z" fill="#E6ECF0"/>
<path fill-rule="evenodd" clip-rule="evenodd" d="M160.626 342.316H199.274C202.275 342.316 204.709 344.781 204.709 347.821C204.709 350.86 202.275 353.324 199.274 353.324H160.626C157.625 353.324 155.191 350.86 155.191 347.821C155.191 344.781 157.625 342.316 160.626 342.316V342.316Z" fill="#C2DAF0"/>
<path fill-rule="evenodd" clip-rule="evenodd" d="M160.626 359.438H305.556C308.557 359.438 310.991 361.902 310.991 364.941C310.991 367.981 308.557 370.446 305.556 370.446H160.626C157.625 370.446 155.191 367.981 155.191 364.941C155.191 361.902 157.625 359.438 160.626 359.438V359.438Z" fill="#E6ECF0"/>
<path fill-rule="evenodd" clip-rule="evenodd" d="M139.491 317.552C143.994 317.552 147.644 313.856 147.644 309.297C147.644 304.738 143.994 301.042 139.491 301.042C134.989 301.042 131.339 304.738 131.339 309.297C131.339 313.856 134.989 317.552 139.491 317.552Z" fill="#E6ECF0"/>
<path fill-rule="evenodd" clip-rule="evenodd" d="M160.626 303.181H199.273C202.275 303.181 204.708 305.645 204.708 308.684C204.708 311.723 202.275 314.187 199.273 314.187H160.626C157.624 314.187 155.191 311.723 155.191 308.684C155.191 305.645 157.624 303.181 160.626 303.181V303.181Z" fill="#C2DAF0"/>
<path fill-rule="evenodd" clip-rule="evenodd" d="M160.626 320.304H305.555C308.556 320.304 310.99 322.765 310.99 325.806C310.99 328.845 308.556 331.309 305.555 331.309H160.626C157.624 331.309 155.191 328.845 155.191 325.806C155.191 322.765 157.624 320.304 160.626 320.304V320.304Z" fill="#E6ECF0"/>
<path fill-rule="evenodd" clip-rule="evenodd" d="M139.491 197.706C143.994 197.706 147.644 194.01 147.644 189.451C147.644 184.892 143.994 181.196 139.491 181.196C134.989 181.196 131.339 184.892 131.339 189.451C131.339 194.01 134.989 197.706 139.491 197.706Z" fill="#E6ECF0"/>
<path fill-rule="evenodd" clip-rule="evenodd" d="M160.626 183.335H192.027C195.028 183.335 197.462 185.798 197.462 188.839C197.462 191.878 195.028 194.342 192.027 194.342H160.626C157.624 194.342 155.191 191.878 155.191 188.839C155.191 185.798 157.624 183.335 160.626 183.335V183.335Z" fill="#E6ECF0"/>
<path fill-rule="evenodd" clip-rule="evenodd" d="M211.352 183.335H242.754C245.755 183.335 248.188 185.798 248.188 188.839C248.188 191.878 245.755 194.342 242.754 194.342H211.352C208.351 194.342 205.917 191.878 205.917 188.839C205.917 185.798 208.351 183.335 211.352 183.335V183.335Z" fill="#E6ECF0"/>
<path fill-rule="evenodd" clip-rule="evenodd" d="M190.825 212.685H201.694C204.696 212.685 207.129 215.149 207.129 218.189C207.129 221.228 204.696 223.692 201.694 223.692H190.825C187.824 223.692 185.39 221.228 185.39 218.189C185.39 215.149 187.824 212.685 190.825 212.685V212.685Z" fill="#25D366"/>
<path fill-rule="evenodd" clip-rule="evenodd" d="M135.259 212.685H173.907C176.908 212.685 179.342 215.149 179.342 218.189C179.342 221.228 176.908 223.692 173.907 223.692H135.259C132.258 223.692 129.824 221.228 129.824 218.189C129.824 215.149 132.258 212.685 135.259 212.685V212.685Z" fill="#C2DAF0"/>
<path fill-rule="evenodd" clip-rule="evenodd" d="M135.259 229.805H305.551C308.553 229.805 310.986 232.269 310.986 235.308C310.986 238.349 308.553 240.812 305.551 240.812H135.259C132.258 240.812 129.824 238.349 129.824 235.308C129.824 232.269 132.258 229.805 135.259 229.805V229.805Z" fill="#E6ECF0"/>
<path fill-rule="evenodd" clip-rule="evenodd" d="M135.259 246.927H305.551C308.553 246.927 310.986 249.39 310.986 252.43C310.986 255.469 308.553 257.933 305.551 257.933H135.259C132.258 257.933 129.824 255.469 129.824 252.43C129.824 249.39 132.258 246.927 135.259 246.927V246.927Z" fill="#E6ECF0"/>
<path fill-rule="evenodd" clip-rule="evenodd" d="M135.259 264.049H305.551C308.553 264.049 310.986 266.514 310.986 269.552C310.986 272.59 308.553 275.054 305.551 275.054H135.259C132.258 275.054 129.824 272.59 129.824 269.552C129.824 266.514 132.258 264.049 135.259 264.049V264.049Z" fill="#E6ECF0"/>
<path fill-rule="evenodd" clip-rule="evenodd" d="M424.992 172.01H591.256C595.154 172.01 598.315 175.048 598.315 178.793C598.315 182.541 595.154 185.578 591.256 185.578H424.992C421.094 185.578 417.934 182.541 417.934 178.793C417.934 175.048 421.094 172.01 424.992 172.01V172.01Z" fill="#E6ECF0"/>
<path fill-rule="evenodd" clip-rule="evenodd" d="M394.404 189.723C400.251 189.723 404.992 185.167 404.992 179.548C404.992 173.929 400.251 169.374 394.404 169.374C388.557 169.374 383.816 173.929 383.816 179.548C383.816 185.167 388.557 189.723 394.404 189.723Z" fill="#A5B8D0"/>
<path fill-rule="evenodd" clip-rule="evenodd" d="M849.279 189.721C855.126 189.721 859.867 185.166 859.867 179.547C859.867 173.927 855.126 169.372 849.279 169.372C843.432 169.372 838.691 173.927 838.691 179.547C838.691 185.166 843.432 189.721 849.279 189.721Z" fill="#E6ECF0"/>
<path fill-rule="evenodd" clip-rule="evenodd" d="M424.992 209.692H523.81C527.707 209.692 530.868 212.73 530.868 216.477C530.868 220.223 527.707 223.26 523.81 223.26H424.992C421.094 223.26 417.934 220.223 417.934 216.477C417.934 212.73 421.094 209.692 424.992 209.692V209.692Z" fill="#E6ECF0"/>
<path fill-rule="evenodd" clip-rule="evenodd" d="M394.404 227.406C400.251 227.406 404.992 222.85 404.992 217.231C404.992 211.612 400.251 207.057 394.404 207.057C388.557 207.057 383.816 211.612 383.816 217.231C383.816 222.85 388.557 227.406 394.404 227.406Z" fill="#0496FF"/>
<path fill-rule="evenodd" clip-rule="evenodd" d="M849.279 227.406C855.126 227.406 859.867 222.85 859.867 217.231C859.867 211.612 855.126 207.057 849.279 207.057C843.432 207.057 838.691 211.612 838.691 217.231C838.691 222.85 843.432 227.406 849.279 227.406Z" fill="#E6ECF0"/>
<path fill-rule="evenodd" clip-rule="evenodd" d="M424.992 245.87H561.454C565.352 245.87 568.513 248.906 568.513 252.653C568.513 256.399 565.352 259.436 561.454 259.436H424.992C421.094 259.436 417.934 256.399 417.934 252.653C417.934 248.906 421.094 245.87 424.992 245.87V245.87Z" fill="#E6ECF0"/>
<path fill-rule="evenodd" clip-rule="evenodd" d="M394.404 263.581C400.251 263.581 404.992 259.026 404.992 253.407C404.992 247.787 400.251 243.232 394.404 243.232C388.557 243.232 383.816 247.787 383.816 253.407C383.816 259.026 388.557 263.581 394.404 263.581Z" fill="#25D366"/>
<path fill-rule="evenodd" clip-rule="evenodd" d="M849.279 263.581C855.126 263.581 859.867 259.026 859.867 253.407C859.867 247.787 855.126 243.232 849.279 243.232C843.432 243.232 838.691 247.787 838.691 253.407C838.691 259.026 843.432 263.581 849.279 263.581Z" fill="#E6ECF0"/>
<path fill-rule="evenodd" clip-rule="evenodd" d="M424.992 285.062H547.338C551.235 285.062 554.396 288.099 554.396 291.846C554.396 295.592 551.235 298.629 547.338 298.629H424.992C421.094 298.629 417.934 295.592 417.934 291.846C417.934 288.099 421.094 285.062 424.992 285.062V285.062Z" fill="#E6ECF0"/>
<path fill-rule="evenodd" clip-rule="evenodd" d="M394.404 302.772C400.251 302.772 404.992 298.217 404.992 292.598C404.992 286.979 400.251 282.423 394.404 282.423C388.557 282.423 383.816 286.979 383.816 292.598C383.816 298.217 388.557 302.772 394.404 302.772Z" fill="#F34213"/>
<path fill-rule="evenodd" clip-rule="evenodd" d="M849.279 302.772C855.126 302.772 859.867 298.217 859.867 292.598C859.867 286.979 855.126 282.423 849.279 282.423C843.432 282.423 838.691 286.979 838.691 292.598C838.691 298.217 843.432 302.772 849.279 302.772Z" fill="#E6ECF0"/>
<rect x="384.113" y="337.893" width="475.996" height="279.706" rx="3.5" stroke="#7F9DB3" stroke-dasharray="8 8"/>
<rect x="341.586" y="544.782" width="356.789" height="210.219" rx="12" fill="url(#paint0_linear)"/>
<path fill-rule="evenodd" clip-rule="evenodd" d="M430.351 792.415C432.404 795.805 437.599 794.576 437.914 790.624L441.998 739.418C442.278 735.902 438.269 733.708 435.459 735.84L394.623 766.82C391.506 769.185 393.179 774.157 397.091 774.157H419.292L430.351 792.415ZM425.081 767.957C424.341 766.736 423.016 765.989 421.588 765.989H409.226L433.127 747.857L430.774 777.357L425.081 767.957Z" fill="white"/>
<path fill-rule="evenodd" clip-rule="evenodd" d="M591.051 444.146C589.946 444.146 589.051 445.041 589.051 446.146V509.416C589.051 510.52 589.946 511.416 591.051 511.416H653.486C654.59 511.416 655.486 510.52 655.486 509.416V446.146C655.486 445.041 654.59 444.146 653.486 444.146H591.051ZM631.493 477.781L618.575 494.635L609.348 483.386L596.43 500.204H648.101L631.493 477.781Z" fill="#E6ECF0"/>
<circle cx="888" cy="443" r="5" transform="rotate(-180 888 443)" fill="white"/>
<circle cx="888" cy="483" r="5" transform="rotate(-180 888 483)" fill="white"/>
<defs>
<filter id="filter0_d" x="0" y="13.3198" width="970.437" height="718.521" filterUnits="userSpaceOnUse" color-interpolation-filters="sRGB">
<feFlood flood-opacity="0" result="BackgroundImageFix"/>
<feColorMatrix in="SourceAlpha" type="matrix" values="0 0 0 0 0 0 0 0 0 0 0 0 0 0 0 0 0 0 127 0"/>
<feOffset dx="-10" dy="10"/>
<feGaussianBlur stdDeviation="35"/>
<feColorMatrix type="matrix" values="0 0 0 0 0 0 0 0 0 0 0 0 0 0 0 0 0 0 0.1 0"/>
<feBlend mode="normal" in2="BackgroundImageFix" result="effect1_dropShadow"/>
<feBlend mode="normal" in="SourceGraphic" in2="effect1_dropShadow" result="shape"/>
</filter>
<linearGradient id="paint0_linear" x1="698.202" y1="755.158" x2="318.896" y2="548.67" gradientUnits="userSpaceOnUse">
<stop stop-color="#F34314"/>
<stop offset="1" stop-color="#F78161"/>
</linearGradient>
</defs>
</svg>
